PathFileType	4	(X/Y/Z)	/Users/itak/Documents/Research/Walk-IL/dataset/trc/00539_00009.trc
DataRate	CameraRate	NumFrames	NumMarkers	Units	OrigDataRate	OrigDataStartFrame	OrigNumFrames
100.000000	100.000000	4	53	mm	100.000000	190	761
Frame#	Time	RPSI			LPSI			L3			STRN			T10			C7			CLAV			RBAK			LBAK			LSHO			LUPA			LAEL			LAOL			LWTS			LWPS			LFRA			LIFD			LHPS			LHTS			RSHO			RUPA			RAEL			RAOL			RWTS			RWPS			RFRA			RIFD			RHTS			RHPS			RBHD			LFHD			RFHD			LBHD			LHIP			RHIP			RASI			LASI			LKNE			LTHI			LANK			LTIP			LTOE			LMT1			LMT5			LHEE			RKNE			RTHI			RANK			RTIP			RTOE			RMT1			RMT5			RHEE			
		X1	Y1	Z1	X2	Y2	Z2	X3	Y3	Z3	X4	Y4	Z4	X5	Y5	Z5	X6	Y6	Z6	X7	Y7	Z7	X8	Y8	Z8	X9	Y9	Z9	X10	Y10	Z10	X11	Y11	Z11	X12	Y12	Z12	X13	Y13	Z13	X14	Y14	Z14	X15	Y15	Z15	X16	Y16	Z16	X17	Y17	Z17	X18	Y18	Z18	X19	Y19	Z19	X20	Y20	Z20	X21	Y21	Z21	X22	Y22	Z22	X23	Y23	Z23	X24	Y24	Z24	X25	Y25	Z25	X26	Y26	Z26	X27	Y27	Z27	X28	Y28	Z28	X29	Y29	Z29	X30	Y30	Z30	X31	Y31	Z31	X32	Y32	Z32	X33	Y33	Z33	X34	Y34	Z34	X35	Y35	Z35	X36	Y36	Z36	X37	Y37	Z37	X38	Y38	Z38	X39	Y39	Z39	X40	Y40	Z40	X41	Y41	Z41	X42	Y42	Z42	X43	Y43	Z43	X44	Y44	Z44	X45	Y45	Z45	X46	Y46	Z46	X47	Y47	Z47	X48	Y48	Z48	X49	Y49	Z49	X50	Y50	Z50	X51	Y51	Z51	X52	Y52	Z52	X53	Y53	Z53	

191	1.9	-699.1710815429688	1020.846252441406	457.3814086914062	-691.0279541015625	1020.732299804688	323.081298828125	-690.3364868164062	1113.622924804688	383.0794677734375	-451.9810180664062	1296.774780273438	380.6827697753906	-698.469970703125	1238.9013671875	379.0716247558594	-644.9405517578125	1511.066772460938	385.7247619628906	-470.3746337890625	1408.380249023438	380.3004760742188	-717.9749755859375	1389.845947265625	475.9328002929688	-676.7998046875	1456.659545898438	293.2052917480469	-575.4622802734375	1478.01513671875	214.4724273681641	-580.9564819335938	1352.463012695312	133.6213226318359	-551.4148559570312	1130.930908203125	110.3943405151367	-638.50634765625	1119.235595703125	160.5343933105469	-454.7848510742188	887.9771728515625	151.5445556640625	-500.5090026855469	866.4815673828125	79.43805694580078	-526.9810180664062	1045.1357421875	102.6666564941406	-455.8199768066406	717.0790405273438	141.8820648193359	-490.2779846191406	806.7799072265625	86.13356018066406	-437.7585754394531	811.4035034179688	129.3352203369141	-586.2232666015625	1476.462890625	542.5397338867188	-606.2962646484375	1413.983520507812	612.1892700195312	-619.8890380859375	1125.816772460938	665.0128784179688	-671.4116821289062	1107.240112304688	635.789306640625	-484.1528930664062	904.1575317382812	637.020263671875	-530.96630859375	885.6221923828125	701.4288940429688	-609.132080078125	1070.270385742188	673.8225708007812	-472.48779296875	731.7736206054688	644.4468383789062	-455.757080078125	813.6929931640625	655.1339111328125	-512.1580810546875	810.3958129882812	701.8937377929688	-584.7517700195312	1686.304321289062	437.1014709472656	-415.3470764160156	1716.089477539062	320.5267333984375	-449.326416015625	1719.90283203125	460.9407653808594	-537.8202514648438	1682.0419921875	278.1737060546875	-561.5198364257812	932.4269409179688	198.6896514892578	-574.0245971679688	953.276123046875	583.7368774414062	-490.8520812988281	980.4830932617188	523.8477783203125	-486.4198303222656	957.6470336914062	249.6082763671875	-559.977294921875	488.1070251464844	280.21435546875	-550.1597290039062	651.7476196289062	234.2646636962891	-654.5077514648438	32.51781845092773	313.8558349609375	-630.202880859375	245.9654998779297	290.6229248046875	-445.7713623046875	39.73962020874023	375.8069763183594	-518.5842895507812	40.64799499511719	410.5563354492188	-531.3922119140625	36.18825149536133	304.322509765625	-725.3308715820312	34.85904693603516	368.5095520019531	-453.9399108886719	519.8158569335938	549.4524536132812	-509.1062927246094	804.5376586914062	583.77978515625	-586.5859375	59.05224609375	561.1456298828125	-462.1975402832031	371.147705078125	546.56591796875	-369.2273254394531	60.29377746582031	522.0794677734375	-432.2339477539062	55.06461334228516	480.3393249511719	-455.7516479492188	56.06358337402344	581.3510131835938	-641.5	52.23698806762695	505.2893981933594	
192	1.91	-698.2318115234375	1020.900024414062	457.6264953613281	-690.0995483398438	1020.730163574219	323.3457946777344	-689.3531494140625	1113.669799804688	383.2568054199219	-450.8717346191406	1296.674072265625	380.8294067382812	-697.3764038085938	1238.970825195312	379.145263671875	-643.6914672851562	1511.060791015625	385.6495056152344	-469.1378173828125	1408.341186523438	380.3771362304688	-716.8040161132812	1389.999145507812	475.8748168945312	-675.5438232421875	1456.63916015625	293.1560974121094	-574.1698608398438	1477.907592773438	214.4756774902344	-579.5350952148438	1352.352661132812	133.6186370849609	-549.5746459960938	1130.925415039062	110.3141937255859	-636.7233276367188	1118.983520507812	160.2904510498047	-452.1361694335938	888.3822021484375	151.6933441162109	-497.7059631347656	866.6995239257812	79.53205108642578	-524.8573608398438	1045.253295898438	102.6316223144531	-452.4264831542969	717.43017578125	142.0902404785156	-487.1198425292969	806.9917602539062	86.20439910888672	-434.5269165039062	811.9465942382812	129.4615173339844	-585.0597534179688	1476.562744140625	542.508544921875	-605.2312622070312	1414.1640625	612.1963500976562	-619.2626342773438	1126.077514648438	665.2848510742188	-670.7269287109375	1107.497436523438	636.0438842773438	-483.720703125	904.192626953125	637.56103515625	-530.7976684570312	885.7361450195312	702.0706787109375	-608.5726928710938	1070.51123046875	674.1171875	-472.6104431152344	731.7716064453125	645.3643188476562	-455.6622619628906	813.6975708007812	655.9273681640625	-512.146240234375	810.6217041015625	702.6597900390625	-583.3607177734375	1686.3623046875	436.9192199707031	-413.9679870605469	1715.924438476562	320.2901306152344	-447.9128112792969	1719.919921875	460.6926574707031	-536.4712524414062	1681.918701171875	277.9945373535156	-560.6363525390625	932.3352661132812	198.9332733154297	-573.0267944335938	953.4763793945312	584.0509033203125	-489.8905639648438	980.6028442382812	524.05908203125	-485.548095703125	957.5580444335938	249.8427581787109	-559.4815063476562	488.0958251953125	280.4532165527344	-549.5242309570312	651.7146606445312	234.5315856933594	-654.5059204101562	32.57910919189453	313.8877868652344	-629.9954833984375	245.9642791748047	290.840087890625	-445.7972106933594	39.75387573242188	375.8060302734375	-518.6358032226562	40.58827209472656	410.6003112792969	-531.385986328125	36.21056747436523	304.3343505859375	-725.3289794921875	34.85453033447266	368.5273132324219	-451.1683349609375	520.46875	549.4034423828125	-507.6856994628906	804.9043579101562	584.001220703125	-577.4002685546875	57.8377685546875	560.5115356445312	-457.6174011230469	371.763671875	546.3662109375	-360.1139831542969	62.01009750366211	521.295166015625	-423.0457763671875	56.1055908203125	479.5796203613281	-446.5533142089844	56.53908157348633	580.6268310546875	-632.2259521484375	50.4208869934082	504.6587219238281	
193	1.92	-697.2655029296875	1020.924621582031	457.8779602050781	-689.129638671875	1020.702758789062	323.6233215332031	-688.32373046875	1113.71142578125	383.4351196289062	-449.7181396484375	1296.54443359375	380.99951171875	-696.24462890625	1239.0224609375	379.2469482421875	-642.3899536132812	1511.034423828125	385.6169128417969	-467.8489379882812	1408.284790039062	380.4697265625	-715.5841064453125	1390.135131835938	475.8501281738281	-674.2387084960938	1456.600463867188	293.1346130371094	-572.8294067382812	1477.794677734375	214.5075073242188	-578.066162109375	1352.242919921875	133.6383666992188	-547.6988525390625	1130.916015625	110.2601165771484	-634.9135131835938	1118.731201171875	160.0471649169922	-449.3939514160156	888.8211669921875	151.8963775634766	-494.79248046875	866.91357421875	79.69235229492188	-522.6732177734375	1045.37841796875	102.6298522949219	-448.8609008789062	717.84521484375	142.39501953125	-483.8516845703125	807.2340698242188	86.34146118164062	-431.1687927246094	812.54052734375	129.6547088623047	-583.8280639648438	1476.629028320312	542.511962890625	-604.0969848632812	1414.320068359375	612.230712890625	-618.53369140625	1126.2978515625	665.5614624023438	-669.9896240234375	1107.73193359375	636.312744140625	-483.2791442871094	904.1926879882812	638.1614990234375	-530.5987548828125	885.8255615234375	702.7496948242188	-607.9559326171875	1070.73046875	674.4432373046875	-472.7236022949219	731.7213134765625	646.3363037109375	-455.5578002929688	813.6295776367188	656.7748413085938	-512.1422119140625	810.8477172851562	703.4889526367188	-581.9090576171875	1686.39501953125	436.7857360839844	-412.5391540527344	1715.765869140625	320.08544921875	-446.4323425292969	1719.910522460938	460.4830932617188	-535.0684814453125	1681.792236328125	277.8554382324219	-559.6475219726562	932.2522583007812	199.1887512207031	-572.0521850585938	953.6450805664062	584.4119262695312	-488.9342346191406	980.6986694335938	524.3245849609375	-484.5715026855469	957.4775390625	250.0893402099609	-558.9390869140625	488.0843200683594	280.7165222167969	-548.7988891601562	651.6784057617188	234.8286590576172	-654.5032348632812	32.6407585144043	313.9205627441406	-629.77880859375	245.97021484375	291.0574951171875	-445.8295288085938	39.76258087158203	375.8101806640625	-518.6527099609375	40.54623413085938	410.6517944335938	-531.3807983398438	36.2306022644043	304.3451538085938	-725.3195190429688	34.84230804443359	368.5375061035156	-448.3766479492188	521.106201171875	549.4017944335938	-506.2788391113281	805.2495727539062	584.2957153320312	-567.91796875	56.63168716430664	559.9282836914062	-452.9535522460938	372.3878173828125	546.2025756835938	-350.7783203125	63.85411834716797	520.513916015625	-413.637451171875	57.23555755615234	478.8349914550781	-437.0972595214844	57.10099411010742	579.9230346679688	-622.6768188476562	48.59842300415039	504.09814453125	
194	1.93	-696.2713623046875	1020.9169921875	458.1408081054688	-688.1177978515625	1020.648742675781	323.9140930175781	-687.247314453125	1113.743774414062	383.6151428222656	-448.5247497558594	1296.386596679688	381.1979370117188	-695.0738525390625	1239.054443359375	379.3768615722656	-641.03564453125	1510.992797851562	385.6231994628906	-466.5153503417969	1408.204223632812	380.5816650390625	-714.3209228515625	1390.250610351562	475.8578491210938	-672.88330078125	1456.544067382812	293.1363220214844	-571.4360961914062	1477.672973632812	214.5653228759766	-576.551513671875	1352.135498046875	133.687744140625	-545.78369140625	1130.898193359375	110.2356109619141	-633.0774536132812	1118.480590820312	159.8126678466797	-446.5607604980469	889.290283203125	152.1531066894531	-491.7694702148438	867.1196899414062	79.91862487792969	-520.4325561523438	1045.498779296875	102.6660385131836	-445.1448669433594	718.3175659179688	142.7972717285156	-480.4962463378906	807.5044555664062	86.55067443847656	-427.7149963378906	813.1692504882812	129.9189147949219	-582.5350341796875	1476.664428710938	542.5538940429688	-602.8970947265625	1414.451416015625	612.2898559570312	-617.70703125	1126.47900390625	665.8380126953125	-669.2123413085938	1107.952880859375	636.5860595703125	-482.8280639648438	904.1559448242188	638.8138427734375	-530.3653564453125	885.891357421875	703.4611206054688	-607.2833251953125	1070.92724609375	674.7985229492188	-472.8177490234375	731.619384765625	647.3526000976562	-455.4473876953125	813.4889526367188	657.6761474609375	-512.1470336914062	811.070068359375	704.3795776367188	-580.3956909179688	1686.401733398438	436.7029418945312	-411.0545349121094	1715.613647460938	319.9133605957031	-444.888671875	1719.87109375	460.3160705566406	-533.608154296875	1681.658081054688	277.7569885253906	-558.5718994140625	932.168701171875	199.4629058837891	-571.0849609375	953.7782592773438	584.8168334960938	-487.9780883789062	980.7731323242188	524.6406860351562	-483.5079040527344	957.3969116210938	250.3547058105469	-558.3567504882812	488.0703430175781	281.001953125	-547.98193359375	651.6353149414062	235.1544036865234	-654.4992065429688	32.70108795166016	313.9534912109375	-629.5498657226562	245.9764404296875	291.2711181640625	-445.8685302734375	39.76553344726562	375.8185729980469	-518.6412353515625	40.52232360839844	410.7062377929688	-531.3779907226562	36.24840927124023	304.3544921875	-725.3026123046875	34.82244873046875	368.5392456054688	-445.558837890625	521.7276611328125	549.4482421875	-504.8881530761719	805.573486328125	584.6734619140625	-558.1808471679688	55.45690536499023	559.3958129882812	-448.2082214355469	373.0234680175781	546.0778198242188	-341.261474609375	65.79971313476562	519.72705078125	-404.0632629394531	58.43818664550781	478.10791015625	-427.4214172363281	57.74098205566406	579.2347412109375	-612.900390625	46.80858612060547	503.6123352050781	
